<svg xmlns="http://www.w3.org/2000/svg" direction="ltr" width="1280" height="720" viewBox="0 0 1280 720" stroke-linecap="round" stroke-linejoin="round" data-color-mode="light" class="tl-container tl-theme__force-sRGB tl-theme__light" style="background-color: transparent;"><style>@import url("fonts.css");</style><g transform="matrix(1, 0, 0, 1, 1012, 634)" opacity="1" data-beat="17"><g transform="scale(1)"><defs><clipPath id="_export_17_r_37__shape_eval-arrow_clip"><path d="M -100 -192 L 200 -192 L 200 100 L -100 100 Z"/></clipPath></defs><g fill="none" stroke="#099268" stroke-width="2" stroke-linejoin="round" stroke-linecap="round" pointer-events="none"><g style="clip-path: url(&quot;#_export_17_r_37__shape_eval-arrow_clip&quot;);"><rect x="-100" y="-192" width="300" height="292" opacity="0"/><g stroke-width="2"><path d="M 0 0 C 40.0931 -22.3915 74.3508 -53.9086 100 -92" stroke-dasharray="0.020166889095154503 4.134823382358042" stroke-dashoffset="0"/></g></g><path d="M 94.58257771411844 -89.4209428512664 L 100 -92 L 99.52481786567438 -86.0188461030318"/></g></g></g><g transform="matrix(1, 0, 0, 1, 1144, 442)" opacity="1" data-beat="17"><path fill="#d3e9e3" d="M 4 0 L 20 0 Q 24 0 24 3 L 24 9 Q 24 12 20 12 L 4 12 Q 0 12 0 9 L 0 3 Q 0 0 4 0"/><path stroke-width="2" d="M 3.8214 -0.3264 L 20.4324 0.1888 Q 24.4324 0.1888 24.4324 3.1888 L 23.729 9.1604 Q 23.729 12.1604 19.729 12.1604 L 4.3854 11.8221 Q 0.3854 11.8221 0.3854 8.8221 L -0.1786 2.6736 Q -0.1786 -0.3264 3.8214 -0.3264 M 3.7204 -0.3265 L 20.5183 -0.1435 Q 24.5183 -0.1435 24.5183 2.8565 L 24.1488 8.8705 Q 24.1488 11.8705 20.1488 11.8705 L 3.8256 11.6505 Q -0.1744 11.6505 -0.1744 8.6505 L -0.2796 2.6735 Q -0.2796 -0.3265 3.7204 -0.3265" fill="none" stroke="#099268"/></g><g transform="matrix(1, 0, 0, 1, 1120, 450)" opacity="1" data-beat="17"><path fill="#fcfffe" d="M 4 0 L 68 0 Q 72 0 72 4 L 72 82 Q 72 86 68 86 L 4 86 Q 0 86 0 82 L 0 4 Q 0 0 4 0"/><path stroke-width="2" d="M 3.4314 0.1668 L 68.4314 0.2429 Q 72.4314 0.2429 72.4314 4.2429 L 71.7815 81.7243 Q 71.7815 85.7243 67.7815 85.7243 L 4.6003 85.7913 Q 0.6003 85.7913 0.6003 81.7913 L -0.5686 4.1668 Q -0.5686 0.1668 3.4314 0.1668 M 3.6718 0.5551 L 68.5448 -0.0311 Q 72.5448 -0.0311 72.5448 3.9689 L 72.0712 82.4194 Q 72.0712 86.4194 68.0712 86.4194 L 3.4875 85.6634 Q -0.5125 85.6634 -0.5125 81.6634 L -0.3282 4.5551 Q -0.3282 0.5551 3.6718 0.5551" fill="none" stroke="#099268"/></g><g transform="matrix(1, 0, 0, 1, 1132, 474)" opacity="1" data-beat="17"><g transform="scale(1)"><defs><clipPath id="_export_17_r_37__shape_eval-line-1_clip"><path d="M -100 -100 L 148 -100 L 148 101 L -100 101 Z"/></clipPath></defs><g fill="none" stroke="#099268" stroke-width="2" stroke-linejoin="round" stroke-linecap="round" pointer-events="none"><g style="clip-path: url(&quot;#_export_17_r_37__shape_eval-line-1_clip&quot;);"><rect x="-100" y="-100" width="248" height="201" opacity="0"/><path stroke-width="2" d="M 0 0 L 48 0"/></g></g></g></g><g transform="matrix(1, 0, 0, 1, 1132, 498)" opacity="1" data-beat="17"><g transform="scale(1)"><defs><clipPath id="_export_17_r_37__shape_eval-line-2_clip"><path d="M -100 -100 L 148 -100 L 148 101 L -100 101 Z"/></clipPath></defs><g fill="none" stroke="#099268" stroke-width="2" stroke-linejoin="round" stroke-linecap="round" pointer-events="none"><g style="clip-path: url(&quot;#_export_17_r_37__shape_eval-line-2_clip&quot;);"><rect x="-100" y="-100" width="248" height="201" opacity="0"/><path stroke-width="2" d="M 0 0 L 48 0"/></g></g></g></g><g transform="matrix(1, 0, 0, 1, 1132, 522)" opacity="1" data-beat="17"><g transform="scale(1)"><defs><clipPath id="_export_17_r_37__shape_eval-line-3_clip"><path d="M -100 -100 L 138 -100 L 138 101 L -100 101 Z"/></clipPath></defs><g fill="none" stroke="#099268" stroke-width="2" stroke-linejoin="round" stroke-linecap="round" pointer-events="none"><g style="clip-path: url(&quot;#_export_17_r_37__shape_eval-line-3_clip&quot;);"><rect x="-100" y="-100" width="238" height="201" opacity="0"/><path stroke-width="2" d="M 0 0 L 38 0"/></g></g></g></g><g transform="matrix(1, 0, 0, 1, 1090, 544)" opacity="1" data-beat="17"><foreignObject x="-6" y="-6" width="1413" height="36" class="tl-export-embed-styles tl-rich-text tl-rich-text-svg tl-text__outline"><div xmlns="http://www.w3.org/1999/xhtml" style="display: flex; font-family: tldraw_draw, sans-serif; place-content: normal flex-start; place-items: center normal; accent-color: auto; place-self: auto; alignment-baseline: auto; anchor-name: none; anchor-scope: none; app-region: none; appearance: none; aspect-ratio: auto; backdrop-filter: none; backface-visibility: visible; background: none 0% 0% / auto repeat scroll padding-box border-box rgba(0, 0, 0, 0); background-blend-mode: normal; baseline-shift: 0px; baseline-source: auto; block-size: 100%; border-radius: 0px; border-collapse: separate; border-end-end-radius: 0px; border-end-start-radius: 0px; border-image: none; border-inline-start-width: 3px; border-shape: none; border-start-end-radius: 0px; border-start-start-radius: 0px; inset: auto; box-decoration-break: slice; box-shadow: none; box-sizing: content-box; break-after: auto; break-before: auto; break-inside: auto; buffered-rendering: auto; caption-side: top; caret-animation: auto; caret-shape: auto; clear: none; clip: auto; clip-path: none; clip-rule: nonzero; color: rgb(0, 0, 0); color-interpolation: srgb; color-interpolation-filters: linearrgb; color-rendering: auto; color-scheme: normal; columns: auto; column-fill: balance; gap: normal; rule-break: normal; rule-inset: 0px; rule-style: none; rule-visibility-items: normal; rule-width: 3px; column-span: none; contain: none; contain-intrinsic-block-size: none; contain-intrinsic-size: none; contain-intrinsic-inline-size: none; container: none; content: normal; content-visibility: visible; corner-shape: superellipse(1); corner-block-end-shape: superellipse(1); corner-block-start-shape: superellipse(1); counter-increment: none; counter-reset: none; counter-set: none; cx: 0px; cy: 0px; d: none; direction: ltr; dominant-baseline: auto; dynamic-range-limit: no-limit; empty-cells: show; field-sizing: fixed; fill: rgb(0, 0, 0); fill-opacity: 1; fill-rule: nonzero; filter: none; flex: 0 1 auto; flex-flow: row; flex-line-count: 1; float: none; flood-color: rgb(0, 0, 0); flood-opacity: 1; font-feature-settings: normal; font-kerning: normal; font-language-override: normal; font-optical-sizing: auto; font-palette: normal; font-size: 16px; font-size-adjust: none; font-stretch: 100%; font-style: normal; font-synthesis: weight style small-caps; font-variant: normal; font-variation-settings: normal; font-weight: 400; forced-color-adjust: auto; grid: none; grid-area: auto; height: 100%; hyphenate-character: auto; hyphenate-limit-chars: auto; hyphens: manual; image-orientation: from-image; image-rendering: auto; initial-letter: normal; inline-size: auto; inset-block: auto; inset-inline: auto; interactivity: inert; interest-delay: normal; interpolate-size: numeric-only; isolation: auto; letter-spacing: normal; lighting-color: rgb(255, 255, 255); line-break: auto; line-height: normal; list-style: outside none disc; margin-block: 0px; margin: 0px; margin-inline: 0px; marker: none; mask: none; mask-type: luminance; math-depth: 0; math-shift: normal; math-style: normal; max-block-size: none; max-height: none; max-inline-size: none; max-width: none; min-block-size: auto; min-height: auto; min-inline-size: auto; min-width: auto; mix-blend-mode: normal; object-fit: fill; object-position: 50% 50%; object-view-box: none; offset: normal; opacity: 1; order: 0; orphans: 2; outline-offset: 0px; outline-style: none; outline-width: 3px; overflow-anchor: auto; overflow-block: visible; overflow-clip-margin: 0px; overflow-inline: visible; overflow-wrap: normal; overflow: visible; overlay: none; overscroll-behavior-block: auto; overscroll-behavior-inline: auto; overscroll-behavior: auto; padding-block: 6px; padding: 6px; padding-inline: 6px; paint-order: normal; perspective: none; perspective-origin: 50% 50%; position: static; position-anchor: normal; position-area: none; position-try: none; position-visibility: anchors-visible; print-color-adjust: economy; quotes: auto; r: 0px; reading-flow: normal; reading-order: 0; resize: none; rotate: none; row-rule-color: rgb(0, 0, 0); ruby-align: space-around; ruby-overhang: auto; ruby-position: over; rule-overlap: row-over-column; rx: auto; ry: auto; scale: none; scroll-axis-lock: auto; scroll-behavior: auto; scroll-initial-target: none; scroll-margin-block: 0px; scroll-margin: 0px; scroll-margin-inline: 0px; scroll-marker-group: none; scroll-padding-block: auto; scroll-padding: auto; scroll-padding-inline: auto; scroll-snap-align: none; scroll-snap-stop: normal; scroll-snap-type: none; scroll-target-group: none; scroll-timeline: none; scrollbar-color: auto; scrollbar-gutter: auto; scrollbar-width: auto; shape-image-threshold: 0; shape-margin: 0px; shape-outside: none; shape-rendering: auto; speak: normal; stop-color: rgb(0, 0, 0); stop-opacity: 1; stroke: none; stroke-dasharray: none; stroke-dashoffset: 0px; stroke-linecap: round; stroke-linejoin: round; stroke-miterlimit: 4; stroke-opacity: 1; stroke-width: 1px; tab-size: 8; table-layout: auto; text-align: start; text-align-last: auto; text-anchor: start; text-autospace: no-autospace; text-box: normal; text-combine-upright: none; text-decoration: none; text-decoration-skip-ink: auto; text-emphasis-position: over; text-emphasis-style: none; text-fit: none; text-indent: 0px; text-justify: auto; text-orientation: mixed; text-overflow: clip; text-rendering: auto; text-shadow: none; text-size-adjust: auto; text-spacing-trim: normal; text-transform: none; text-underline-offset: auto; text-underline-position: auto; text-wrap: wrap; timeline-scope: none; timeline-trigger: none; transform: none; transform-box: view-box; transform-origin: 50% 50%; transform-style: flat; translate: none; trigger-scope: none; unicode-bidi: isolate; vector-effect: none; vertical-align: baseline; view-timeline: none; view-transition-class: none; view-transition-group: normal; view-transition-name: none; view-transition-scope: none; visibility: visible; white-space-collapse: collapse; widows: 2; width: auto; will-change: auto; window-drag: none; word-break: normal; word-spacing: 0px; writing-mode: horizontal-tb; x: 0px; y: 0px; z-index: auto; zoom: 1;"><div style="font-size: 18px; color: rgb(29, 29, 29); line-height: 24px; --tl-rich-text-heading-line-height: 1.35; text-align: start; overflow-wrap: break-word; white-space: pre-wrap; text-shadow: var(--tl-text-outline); tab-size: 2; inline-size: 100%; interactivity: inert; row-rule-color: rgb(29, 29, 29); width: 100%;"><p dir="auto" style="color: rgb(29, 29, 29); interactivity: inert; margin-block: 18px; margin-bottom: 18px; margin-top: 18px; row-rule-color: rgb(29, 29, 29);">Eval · 给 AI 做考试</p></div></div></foreignObject></g></svg>